<?xml version="1.0" encoding="UTF-8"?>
<svg id="_图层_1" data-name="图层 1" xmlns="http://www.w3.org/2000/svg" viewBox="0 0 1226.31 754.47">
  <path d="M858.2,739.72c0,9.09-6.41,14.73-14.8,14.73l-463.56.02c-8.44,0-15.38-5.17-15.41-14l-.53-182.94-.95-322.86-.45-218.81c-.02-9.78,6.54-15.8,16.19-15.8l453.67-.06,9.24.24c9.06.23,15.13,6.23,15.16,15.62l.63,185.84.66,281.91.15,256.12ZM518.28,27.59l-127.64.03.04,147.86,127.64-.03-.04-147.86ZM676.04,27.57l-129.25.06.07,147.89,129.25-.06-.07-147.89ZM828.94,27.56l-124.26.08.1,147.91,124.26-.08-.1-147.91ZM518.54,203.13l-127.35.07.08,158.36,127.35-.07-.08-158.36ZM676.45,203.11l-129.28.03.04,158.38,129.28-.03-.04-158.38ZM829.58,203.13h-124.56v158.38h124.56v-158.38ZM519,389.08l-127.49.03.04,157.61,127.49-.03-.04-157.61ZM676.58,388.98l-129.17.03.04,157.71,129.17-.03-.04-157.71ZM829.92,389.03l-124.8.06.07,157.67,124.8-.06-.07-157.67ZM519.17,574.68l-127.21.06.07,152.41,127.21-.06-.07-152.41ZM676.65,574.68l-128.99.04.04,152.43,128.99-.04-.04-152.43ZM705.26,574.75l-.05,152.39,124.82.04.05-152.39-124.82-.04Z"/>
  <g>
    <path d="M1226.31,377.79c0,40.41-32.76,73.17-73.17,73.17s-73.17-32.76-73.17-73.17,32.76-73.17,73.17-73.17,73.17,32.76,73.17,73.17ZM1199.98,377.78c0-25.84-20.95-46.79-46.79-46.79s-46.79,20.95-46.79,46.79,20.95,46.79,46.79,46.79,46.79-20.95,46.79-46.79Z"/>
    <path d="M953.35,576.69l-33.59,31.1c-4.87,4.51-12.44,3.61-17-.86-3.77-3.7-6.12-12.39-.83-17.29l141.74-131.42c-8.92-2.22-24.48,6.11-28.88-9.53-1.53-5.45,1.63-15.06,9.06-15.5l52.2-3.1c4.29-.25,8.51.83,11.37,3.31,3.45,2.99,4.84,7.46,4.66,12.23l-1.87,48.78c-.25,6.39-6.92,10.76-12.16,10.86-5.85.11-12.95-4.05-12.91-10.77l.13-20.09-111.93,102.29Z"/>
    <g>
      <path d="M1093.17,307.18c-.36,9-6.25,16.16-15.55,15.06l-51.67-6.12c-7.44-.88-11.63-8.67-10.45-14.96,1.46-7.81,8.31-11.98,16.15-10.57,5.05.91,9.55,1.36,14.98,1.62l-23.58-24.21-114.25-111.37c-5.94-5.79-7.91-13.26-2.78-19.56s14.06-6.35,19.9-.75l31.72,30.43,110.82,109.93c2.86-9.54-3-27.37,12.97-28.89,6.7-.64,13.96,4.07,13.65,11.81l-1.91,47.58Z"/>
      <path d="M1019.62,387.61l-136.95,1.05c-7.93.06-12.3-8.1-11.68-14.29.85-8.49,7.56-11.89,15.67-12l57-.74,76.17-.41-16.12-16.56c-5.09-5.23-1.43-14.2,3.46-17.63,6.35-4.44,12.8-2.31,18.23,2.9l36.23,34.8c5.38,5.17,5.47,14.73-.09,19.85l-40.09,36.86c-4.92,4.53-13.27,1.89-16.79-2.31-4.25-5.06-4.38-12.42.13-17.3l14.83-14.23Z"/>
    </g>
  </g>
  <g>
    <path d="M295.39,175.7l-142.04,123.2c-5.56,4.83-14.13,2.47-17.67-2.56-4.33-6.14-3.23-13.36,2.64-18.5l140.69-123.11-23.05-2.75c-6.24-.74-9.35-7.51-9.23-12.92s4.14-12.74,11.01-12.19l53.07,4.26c7.52.6,15.37,5.99,14.31,14.58l-6.9,55.47c-.84,6.75-8.11,10.83-13.83,10.21-6.4-.69-11.63-5.92-11.67-12.71l2.68-22.97Z"/>
    <g>
      <path d="M323.11,594.51c1.23,10.16-4.78,16.84-14.58,17.47l-52.79,3.38c-6.56.42-10.86-6.35-11.3-11.22-.53-5.97,2.8-13.39,9.52-14.05l23.06-2.27-85.45-71.24-54.31-45.48c-6.02-5.04-8.26-12.1-3.51-19.05,3.74-5.47,12.5-7.9,18.59-2.8l80.47,67.27,60.72,50.35-2.26-23.11c-.71-7.24,7.01-12.51,12.75-12.48,7.87.03,12.12,5.64,13.02,13.11l6.08,50.14Z"/>
      <g>
        <path d="M146.42,378.59c0,40.43-32.78,73.21-73.21,73.21S0,419.02,0,378.59s32.78-73.21,73.21-73.21,73.21,32.78,73.21,73.21ZM120.11,378.57c0-25.85-20.95-46.8-46.8-46.8s-46.8,20.95-46.8,46.8,20.95,46.8,46.8,46.8,46.8-20.95,46.8-46.8Z"/>
        <path d="M279.09,418.12c-8.96-13.95,9.67-21.46,16.38-30.3l-120.5,1.67c-6.89.1-10.61-7.86-10.24-13.19.42-6.14,4.85-12.44,12.04-12.59l119.79-2.6-17.66-17.54c-4.45-4.42-1.64-12.28,2.17-15.89,4.09-3.89,11.61-5.47,16.54-.96l39.64,36.24c3.65,3.33,5.81,7.32,5.68,12.13-.12,4.3-2.75,8.3-6.37,11.45l-40.53,35.35c-5.35,4.67-13.93.94-16.95-3.76Z"/>
      </g>
    </g>
  </g>
</svg>