<?xml version="1.0" encoding="UTF-8"?>
<svg id="_图层_1" data-name="图层 1" xmlns="http://www.w3.org/2000/svg" viewBox="0 0 1094.89 1029.35">
  <path d="M668.95,1029.01c-28.7-.32-49.28-24.23-51.77-52.41-1.77-19.97-6.25-38.75-12.28-57.79-8.39-26.5-21.68-50.24-40.19-70.73-12.46-13.38-26.26-23.53-43.09-30.86-26.9-11.71-48.03-32.72-59.14-60.66-60.77,22.38-129.42,8.76-176.04-36.26-14.83-14.32-26.02-31.02-33.63-50.43-55.69,12.54-113.38,1.88-160.6-29.25-34.97-23.06-62.15-55.34-77.7-94.3C-.11,509.72-4.07,470.46,4.41,431.88c10.45-47.51,35.69-90.62,75.14-119.78,3.97-111.25,99.85-197.55,210.62-196.69,14.52-27.47,34.41-51.52,59.44-70.29C388.58,16.04,435.21-.2,484.03,0c42.53.37,83.11,14.01,116.33,40.73,23.91-11.34,49.13-16.68,75.76-16.29,41.41.29,80.6,14.75,113,40.25,24.4,18.96,43.24,43.04,55.56,71.14,109.03,1.06,187.62,93.26,169.91,200.76,66.93,45.84,90.82,134.21,76.13,210.62-10.13,43.84-27.69,82.27-62.39,111.46.41,55.7-22.24,108.06-62.37,145.93-37.44,34.96-84.5,56.62-135.47,62.47-22.3,2.72-43.84,2.25-66.21.6l-6.88,105.88c-2.1,32.27-26.74,56.16-59.48,55.8l-28.97-.33ZM672.64,992.74c10.26.3,20.68.37,30.14-.03,11.68-.5,17.12-9.56,17.8-19.89l8.05-122.03c.9-13.58,10.79-22.74,24.46-20.96,63.79,8.32,126.44.07,177.23-41.81,42.98-35.43,62.89-81.81,61.07-137.15-.29-8.99,8.18-13.42,13.95-18.04,14.59-11.68,24.93-26.74,33.29-43.54,25.54-51.36,26.68-112,3.03-164.27-9.94-21.98-31.08-49.56-52.09-60.21-11.47-5.82-15.42-15.33-12.83-27.6,6.12-29.03,3.65-59.43-8.9-86.42-23.98-51.6-78.44-81.41-134.69-77.02-12.32.96-18.18-8.66-21.84-18.54-12.21-32.91-37.49-59.14-68.36-75.44-41.67-22-91.49-23.46-133.39-1.95-21.99,11.29-25.6-3.46-44.94-15.91-64-41.19-150.73-25.93-205.42,23.79-16.29,14.81-29.3,32.14-37.66,52.31-10.52,25.38-21.98,11.56-57.49,16.68-26.2,3.78-50.18,13.43-72.16,27.8-45.65,29.83-74.11,80.24-73.87,135.07.12,26.98-18.58,16.2-48.17,57.03-11.64,16.06-19.39,33.02-24.96,52.05-16.84,57.47-1.28,119.69,41.57,161.75,29.64,29.09,68.84,47.28,110.48,49.64,19.61,1.11,38.47-.35,56.52-7,6.49-2.39,12.11-4.68,18.99-1.22,16.43,8.26,7.11,18.52,24.06,44.34,34.47,52.51,108.55,72.87,163.77,42.97,6.88-3.72,13.46-5.69,20.67-2.24,6.21,2.97,10.16,8.4,11.85,16.16,4.92,22.64,20.63,42.06,42.17,51.84,24.55,11.15,45.64,25.93,63.08,46.87,34.11,40.95,51.1,92.06,56.23,144.82.95,9.72,7.31,17.82,18.38,18.14Z"/>
  <path d="M781.78,655.88l-191.16-29.11c-10.07,18.92-28.04,32.02-47.17,36.45-23.46,5.43-46.37-.18-63.84-15.03-22.09-18.78-30.24-48.71-22-76.7l-150.35-107.68c-27.05,21.67-64.22,22.11-91.16,2.62-27.09-19.59-37.97-55.05-25.99-86.69,8.56-22.6,27.33-39.44,48.55-45.59,25.61-7.43,51.21-1.44,70.93,15.84l161.33-97.87c-9.66-42.59,19.14-85.17,62.56-91.82,25.38-3.89,50.18,6.63,66.47,25.19,17.25,19.65,22.49,46.32,15.2,71.43l146.92,99.6c30.88-27.24,76.71-23.58,103.13,7.05,29.94,34.71,20.79,87.95-19.24,111.54l16.05,99.15c37.54,5.04,65.53,37.62,63.53,75.36-1.06,19.96-9.89,38.58-25,51.51-20.77,17.78-48.47,22.7-74.91,12.18-22.34-8.88-40.32-30.19-43.84-57.43ZM583.4,234.61c0-21.82-17.69-39.5-39.5-39.5s-39.5,17.69-39.5,39.5,17.69,39.5,39.5,39.5,39.5-17.69,39.5-39.5ZM678.71,474.92l62.67-38.6c-5.42-16.73-5.22-33.83.42-50.31l-145.5-98.14c-30.87,30.13-79.97,28.66-108.68-3.68l-157.58,95.65c6.49,17.92,6.2,36.98-1.13,54.78l147.24,106.25c27.51-27.57,71.14-27.67,99.5-2l103.06-63.95ZM299.57,405.93c0-21.85-17.71-39.57-39.57-39.57s-39.57,17.71-39.57,39.57,17.71,39.57,39.57,39.57,39.57-17.71,39.57-39.57ZM848.54,411.74c0-21.25-17.23-38.48-38.48-38.48s-38.48,17.23-38.48,38.48,17.23,38.48,38.48,38.48,38.48-17.23,38.48-38.48ZM785.9,620.93c7.97-20.31,22.61-34.36,41.18-42.33l-15.05-93.97c-19.4.52-37-6.21-51.47-18.53l-85.25,52.59-80.3,49.58c2.27,8.49,3.33,15.5,3.79,23.85l30.56,4.46,156.54,24.36ZM564.52,592.7c0-20.95-16.98-37.93-37.93-37.93s-37.93,16.98-37.93,37.93,16.98,37.93,37.93,37.93,37.93-16.98,37.93-37.93ZM891.49,646.37c0-20.99-17.02-38.01-38.01-38.01s-38.01,17.02-38.01,38.01,17.02,38.01,38.01,38.01,38.01-17.02,38.01-38.01Z"/>
</svg>