<?xml version="1.0" encoding="UTF-8"?>
<svg id="_图层_1" data-name="图层 1" xmlns="http://www.w3.org/2000/svg" viewBox="0 0 1219.89 736.32">
  <path d="M634.51,323.7l-10.86,45.86-15.29,62.57c-5.6,22.94-20.74,40.84-45.74,40.58l-31.04-.32c-23.48-.24-41.7-17.82-50.4-38.2-6.33-14.83-11.22-29.51-16.27-44.74-2.27-6.86-7.03-22.7-14.03-23.61-6.66-.87-11.42,12.08-13.39,17.63l-16.98,47.98c-3.88,10.96-9.52,20.16-17.45,28.57-7.35,5.69-15.39,11.43-25.59,11.44l-192.25.17c-9.25,35.52-36.47,62.83-71.89,70.31-38.2,8.06-76.21-8.62-96.91-41.17-27.09-41.89-20.05-96.95,16.66-130.68,24.73-22.47,59.02-29.69,90.99-18.78,32.71,11.16,55.76,39.58,62.21,73.27l183.04-.03c2.94-2.84,4.88-6.29,6.62-9.82l17.1-47.76c4.08-11.4,8.82-22.19,16.62-31.13,21.39-24.48,58.06-24.87,80.15-1.33,8.17,8.71,12.88,18.83,16.99,30.09l15.67,42.95c2.17,5.94,5.92,12.67,10.76,16.73,4.96-.09,26.31,2.58,27.4-2.08l25.99-110.66,24.88-106.23,40.35-168.42c5.37-22.43,23.67-40.86,46.75-36.15,15.34,3.13,27.16,15.45,30.06,30.98l18.4,98.53,50.36,282.42,20.57,116.4,14.84,84.3,30.07-168.44c2.44-13.65,15.74-22.11,28.53-22.28l23.54-.32,37.93-141.29c5.63-20.98,30.1-36.44,52.62-25.54,10.24,4.95,16.94,14.27,20.3,24.93l19.09,75.77,16.66,67.51,135.37.4c13.99.04,23.8,11.98,22.89,25.46-.85,12.52-10.4,21.9-23.29,21.89l-147.86-.14c-12.93-.01-24.9-9.44-28.02-21.57l-10.49-40.79-8.91-35-11.37-44.64c-.47-.81-1.38-1.83-1.36-1.06l-19.49,74.64-12.87,47.16c-3.74,13.71-16.81,21.48-30.39,21.24-6.84-.12-13.14.02-19.62.26l-15.41,86.1-14.95,81.02c-4.77,25.83-8.38,51.11-14.8,76.18-3.69,14.42-18.33,22.34-31.54,21.4-14.06-1-25.57-11.08-28.21-25.54l-10.19-55.76-48.25-265.47-40.5-234.3-12.17-70.07-21.41,93.55-34.23,145.03ZM138.55,477.78c13.82-20.97,12.8-47.64-1.41-67.55-17.26-24.18-50.03-29.86-73.99-11.78-28.92,21.83-30.72,65.95-3.71,90.1,24.24,21.68,61.06,16.61,79.11-10.78Z"/>
</svg>